HIERARCHY
ROOT Hip
{
	OFFSET 0.000000 0.000000 0.000000 
	CHANNELS 6 Xposition Yposition Zposition Xrotation Yrotation Zrotation
	JOINT LowerSpine
	{
		OFFSET 0.000000 9.015400 -4.878700 
		CHANNELS 3 Xrotation Yrotation Zrotation
		JOINT MiddleSpine
		{
			OFFSET 0.000000 8.227200 0.429800 
			CHANNELS 3 Xrotation Yrotation Zrotation
			JOINT Chest
			{
				OFFSET 0.000000 10.180300 -2.266000 
				CHANNELS 3 Xrotation Yrotation Zrotation
				JOINT Neck
				{
					OFFSET -0.000100 29.121000 3.317500 
					CHANNELS 3 Xrotation Yrotation Zrotation
					JOINT Head
					{
						OFFSET 0.000000 9.353800 2.394300 
						CHANNELS 3 Xrotation Yrotation Zrotation
						End Site
						{
							OFFSET -0.000100 18.226500 -1.149700 
						}
					}
				}
				JOINT LClavicle
				{
					OFFSET 2.316100 22.139000 7.585000 
					CHANNELS 3 Xrotation Yrotation Zrotation
					JOINT LShoulder
					{
						OFFSET 13.530800 3.175600 -5.138400 
						CHANNELS 3 Xrotation Yrotation Zrotation
						JOINT LForearm
						{
							OFFSET 28.742001 -0.102000 -0.249000 
							CHANNELS 3 Xrotation Yrotation Zrotation
							JOINT LHand
							{
								OFFSET 23.976999 0.069500 -0.143600 
								CHANNELS 3 Xrotation Yrotation Zrotation
								JOINT LFinger1
								{
									OFFSET 9.292800 0.812700 2.581100 
									CHANNELS 3 Xrotation Yrotation Zrotation
									JOINT LFinger11
									{
										OFFSET 3.476000 -0.847600 0.612500 
										CHANNELS 3 Xrotation Yrotation Zrotation
										JOINT LFinger12
										{
											OFFSET 2.373000 -0.578800 0.418200 
											CHANNELS 3 Xrotation Yrotation Zrotation
											End Site
											{
												OFFSET 1.688600 -0.504100 0.273900 
											}
										}
									}
								}
								JOINT LFinger2
								{
									OFFSET 9.431500 0.938500 0.224700 
									CHANNELS 3 Xrotation Yrotation Zrotation
									JOINT LFinger21
									{
										OFFSET 4.297800 0.012000 -0.025400 
										CHANNELS 3 Xrotation Yrotation Zrotation
										JOINT LFinger22
										{
											OFFSET 2.382300 0.007300 -0.014500 
											CHANNELS 3 Xrotation Yrotation Zrotation
											End Site
											{
												OFFSET 2.139700 -0.151100 0.002900 
											}
										}
									}
								}
								JOINT LFinger3
								{
									OFFSET 8.938300 0.626400 -2.114600 
									CHANNELS 3 Xrotation Yrotation Zrotation
									JOINT LFinger31
									{
										OFFSET 3.899800 -0.197400 -0.244200 
										CHANNELS 3 Xrotation Yrotation Zrotation
										JOINT LFinger32
										{
											OFFSET 2.222300 -0.111800 -0.139600 
											CHANNELS 3 Xrotation Yrotation Zrotation
											End Site
											{
												OFFSET 1.964900 -0.241600 -0.092900 
											}
										}
									}
								}
								JOINT LFinger4
								{
									OFFSET 8.294400 -0.630300 -3.652000 
									CHANNELS 3 Xrotation Yrotation Zrotation
									JOINT LFinger41
									{
										OFFSET 2.398800 -0.500200 -0.662200 
										CHANNELS 3 Xrotation Yrotation Zrotation
										JOINT LFinger42
										{
											OFFSET 1.759100 -0.366300 -0.485900 
											CHANNELS 3 Xrotation Yrotation Zrotation
											End Site
											{
												OFFSET 1.561300 -0.429000 -0.358200 
											}
										}
									}
								}
								JOINT LFinger0
								{
									OFFSET 1.922400 -1.455000 1.457400 
									CHANNELS 3 Xrotation Yrotation Zrotation
									JOINT LFinger01
									{
										OFFSET 3.579100 -1.175400 2.698400 
										CHANNELS 3 Xrotation Yrotation Zrotation
										JOINT LFinger02
										{
											OFFSET 2.356800 -0.843300 1.698000 
											CHANNELS 3 Xrotation Yrotation Zrotation
											End Site
											{
												OFFSET 1.733100 -0.596600 1.186700 
											}
										}
									}
								}
							}
						}
					}
				}
				JOINT RClavicle
				{
					OFFSET -2.316100 22.139000 7.585000 
					CHANNELS 3 Xrotation Yrotation Zrotation
					JOINT RShoulder
					{
						OFFSET -13.533200 3.176200 -5.139300 
						CHANNELS 3 Xrotation Yrotation Zrotation
						JOINT RForearm
						{
							OFFSET -28.742001 -0.102000 -0.249000 
							CHANNELS 3 Xrotation Yrotation Zrotation
							JOINT RHand
							{
								OFFSET -23.976999 0.069600 -0.143600 
								CHANNELS 3 Xrotation Yrotation Zrotation
								JOINT RFinger1
								{
									OFFSET -9.292800 0.812800 2.581100 
									CHANNELS 3 Xrotation Yrotation Zrotation
									JOINT RFinger11
									{
										OFFSET -3.476000 -0.847600 0.612500 
										CHANNELS 3 Xrotation Yrotation Zrotation
										JOINT RFinger12
										{
											OFFSET -2.372900 -0.578900 0.418300 
											CHANNELS 3 Xrotation Yrotation Zrotation
											End Site
											{
												OFFSET -1.688600 -0.504100 0.273900 
											}
										}
									}
								}
								JOINT RFinger2
								{
									OFFSET -9.431500 0.938600 0.224700 
									CHANNELS 3 Xrotation Yrotation Zrotation
									JOINT RFinger21
									{
										OFFSET -4.297900 0.012000 -0.025400 
										CHANNELS 3 Xrotation Yrotation Zrotation
										JOINT RFinger22
										{
											OFFSET -2.382300 0.007300 -0.014600 
											CHANNELS 3 Xrotation Yrotation Zrotation
											End Site
											{
												OFFSET -2.139700 -0.151100 0.002900 
											}
										}
									}
								}
								JOINT RFinger3
								{
									OFFSET -8.938300 0.626400 -2.114700 
									CHANNELS 3 Xrotation Yrotation Zrotation
									JOINT RFinger31
									{
										OFFSET -3.899800 -0.197400 -0.244200 
										CHANNELS 3 Xrotation Yrotation Zrotation
										JOINT RFinger32
										{
											OFFSET -2.222300 -0.111800 -0.139600 
											CHANNELS 3 Xrotation Yrotation Zrotation
											End Site
											{
												OFFSET -1.964900 -0.241600 -0.092900 
											}
										}
									}
								}
								JOINT RFinger4
								{
									OFFSET -8.294400 -0.630300 -3.652000 
									CHANNELS 3 Xrotation Yrotation Zrotation
									JOINT RFinger41
									{
										OFFSET -2.398800 -0.500200 -0.662200 
										CHANNELS 3 Xrotation Yrotation Zrotation
										JOINT RFinger42
										{
											OFFSET -1.759000 -0.366200 -0.485900 
											CHANNELS 3 Xrotation Yrotation Zrotation
											End Site
											{
												OFFSET -1.561300 -0.429000 -0.358200 
											}
										}
									}
								}
								JOINT RFinger0
								{
									OFFSET -1.922400 -1.454900 1.457200 
									CHANNELS 3 Xrotation Yrotation Zrotation
									JOINT RFinger01
									{
										OFFSET -3.579100 -1.175600 2.698500 
										CHANNELS 3 Xrotation Yrotation Zrotation
										JOINT RFinger02
										{
											OFFSET -2.356700 -0.843200 1.697900 
											CHANNELS 3 Xrotation Yrotation Zrotation
											End Site
											{
												OFFSET -1.733100 -0.596600 1.186700 
											}
										}
									}
								}
							}
						}
					}
				}
			}
		}
	}
	JOINT RThigh
	{
		OFFSET -9.644200 4.075200 -0.795000 
		CHANNELS 3 Xrotation Yrotation Zrotation
		JOINT RShin
		{
			OFFSET -0.771700 -41.948101 0.000000 
			CHANNELS 3 Xrotation Yrotation Zrotation
			JOINT RFoot
			{
				OFFSET 0.000000 -41.190498 0.000000 
				CHANNELS 3 Xrotation Yrotation Zrotation
				JOINT RToe
				{
					OFFSET 0.000000 -4.527200 9.467000 
					CHANNELS 3 Xrotation Yrotation Zrotation
					End Site
					{
						OFFSET 0.000000 0.000000 6.351000 
					}
				}
			}
		}
	}
	JOINT LThigh
	{
		OFFSET 9.644100 4.075500 -0.795000 
		CHANNELS 3 Xrotation Yrotation Zrotation
		JOINT LShin
		{
			OFFSET 0.771800 -41.948399 0.000000 
			CHANNELS 3 Xrotation Yrotation Zrotation
			JOINT LFoot
			{
				OFFSET 0.000000 -41.190498 0.000000 
				CHANNELS 3 Xrotation Yrotation Zrotation
				JOINT LToe
				{
					OFFSET 0.000000 -4.527200 9.467000 
					CHANNELS 3 Xrotation Yrotation Zrotation
					End Site
					{
						OFFSET 0.000000 0.000000 6.351000 
					}
				}
			}
		}
	}
}
MOTION
Frames: 6
Frame Time: 0.033333
0.000000 77.028252 0.000000 8.178043 14.627969 -1.759564 0.000000 0.000000 0.000000 1.565208 -3.175232 0.641306 1.565208 -3.175232 0.641306 0.000000 0.000000 0.000000 0.000000 0.000000 0.000000 0.000000 0.000000 -13.136345 29.503029 -9.955529 -57.400230 166.391190 -89.016212 166.063232 0.000000 0.000000 0.000000 0.000000 0.000000 0.000000 0.000000 0.000000 0.000000 0.000000 0.000000 0.000000 0.000000 0.000000 0.000000 0.000000 0.000000 0.000000 0.000000 0.000000 0.000000 0.000000 0.000000 0.000000 0.000000 0.000000 0.000000 0.000000 0.000000 0.000000 0.000000 0.000000 0.000000 0.000000 0.000000 0.000000 0.000000 0.000000 0.000000 0.000000 0.000000 0.000000 0.000000 0.000000 0.000000 0.000000 0.000000 0.000000 0.000000 0.000000 13.936309 25.795635 5.405494 63.256779 -180.000000 75.756271 -180.000000 0.000000 0.000000 0.000000 0.000000 0.000000 0.000000 0.000000 0.000000 0.000000 0.000000 0.000000 0.000000 0.000000 0.000000 0.000000 0.000000 0.000000 0.000000 0.000000 0.000000 0.000000 0.000000 0.000000 0.000000 0.000000 0.000000 0.000000 0.000000 0.000000 0.000000 0.000000 0.000000 0.000000 0.000000 0.000000 0.000000 0.000000 0.000000 0.000000 0.000000 0.000000 0.000000 0.000000 0.000000 0.000000 0.000000 0.000000 0.000000 -33.514908 -11.168240 -8.217594 62.759018 0.000006 -0.000002 -14.569250 2.136934 1.614567 -8.355706 0.000000 0.000000 -31.551317 6.952271 -1.737066 52.847809 0.000005 -0.000001 -33.280746 1.388123 1.243247 -0.000002 0.000000 0.000000 
0.396379 77.332039 -0.363667 7.994951 12.472105 -1.652693 0.000000 0.000000 0.000000 1.631729 -2.818395 0.774258 1.631729 -2.818395 0.774258 0.000000 0.000000 0.000000 0.000000 0.000000 0.000000 0.000000 0.000000 -13.442509 26.770790 -11.594887 -57.938152 178.325302 -86.514946 177.976151 0.000000 0.000000 0.000000 0.000000 0.000000 0.000000 0.000000 0.000000 0.000000 0.000000 0.000000 0.000000 0.000000 0.000000 0.000000 0.000000 0.000000 0.000000 0.000000 0.000000 0.000000 0.000000 0.000000 0.000000 0.000000 0.000000 0.000000 0.000000 0.000000 0.000000 0.000000 0.000000 0.000000 0.000000 0.000000 0.000000 0.000000 0.000000 0.000000 0.000000 0.000000 0.000000 0.000000 0.000000 0.000000 0.000000 0.000000 0.000000 0.000000 0.000000 13.941156 25.381279 4.642729 62.448334 -180.000000 78.425179 -180.000000 0.000000 0.000000 0.000000 0.000000 0.000000 0.000000 0.000000 0.000000 0.000000 0.000000 0.000000 0.000000 0.000000 0.000000 0.000000 0.000000 0.000000 0.000000 0.000000 0.000000 0.000000 0.000000 0.000000 0.000000 0.000000 0.000000 0.000000 0.000000 0.000000 0.000000 0.000000 0.000000 0.000000 0.000000 0.000000 0.000000 0.000000 0.000000 0.000000 0.000000 0.000000 0.000000 0.000000 0.000000 0.000000 0.000000 0.000000 0.000000 -34.562614 -10.504465 -7.518106 62.574532 0.000006 -0.000002 -14.534970 1.789307 1.268942 -6.427752 0.000000 0.000000 -30.321119 8.449291 -1.141851 51.882538 0.000005 -0.000001 -34.013294 1.364254 1.244214 -0.000003 0.000000 0.000000 
0.443856 78.214722 -0.754528 8.058585 10.884174 -1.692703 0.000000 0.000000 0.000000 1.748410 -2.454605 0.911235 1.748410 -2.454605 0.911235 0.000000 0.000000 0.000000 0.000000 0.000000 0.000000 0.000000 0.000000 -13.826472 24.328512 -14.650676 -57.487972 179.105103 -84.997711 178.749680 0.000000 0.000000 0.000000 0.000000 0.000000 0.000000 0.000000 0.000000 0.000000 0.000000 0.000000 0.000000 0.000000 0.000000 0.000000 0.000000 0.000000 0.000000 0.000000 0.000000 0.000000 0.000000 0.000000 0.000000 0.000000 0.000000 0.000000 0.000000 0.000000 0.000000 0.000000 0.000000 0.000000 0.000000 0.000000 0.000000 0.000000 0.000000 0.000000 0.000000 0.000000 0.000000 0.000000 0.000000 0.000000 0.000000 0.000000 0.000000 0.000000 0.000000 13.914144 25.683342 3.000772 62.655117 -180.000000 78.838524 -180.000000 0.000000 0.000000 0.000000 0.000000 0.000000 0.000000 0.000000 0.000000 0.000000 0.000000 0.000000 0.000000 0.000000 0.000000 0.000000 0.000000 0.000000 0.000000 0.000000 0.000000 0.000000 0.000000 0.000000 0.000000 0.000000 0.000000 0.000000 0.000000 0.000000 0.000000 0.000000 0.000000 0.000000 0.000000 0.000000 0.000000 0.000000 0.000000 0.000000 0.000000 0.000000 0.000000 0.000000 0.000000 0.000000 0.000000 0.000000 0.000000 -35.132248 -10.164353 -6.629076 60.989361 0.000006 -0.000002 -13.046108 1.348829 0.837898 -4.570108 0.000000 0.000000 -29.013420 9.755021 -0.296849 49.620235 0.000005 -0.000001 -33.123596 1.080412 0.939024 -0.000003 0.000000 0.000000 
0.139635 79.614502 -1.175692 8.272573 9.712324 -1.928878 0.000000 0.000000 0.000000 1.909935 -2.109998 1.039486 1.909935 -2.109998 1.039486 0.000000 0.000000 0.000000 0.000000 0.000000 0.000000 0.000000 0.000000 -14.230748 22.189032 -18.136423 -56.743992 179.246429 -83.811150 178.892395 0.000000 0.000000 0.000000 0.000000 0.000000 0.000000 0.000000 0.000000 0.000000 0.000000 0.000000 0.000000 0.000000 0.000000 0.000000 0.000000 0.000000 0.000000 0.000000 0.000000 0.000000 0.000000 0.000000 0.000000 0.000000 0.000000 0.000000 0.000000 0.000000 0.000000 0.000000 0.000000 0.000000 0.000000 0.000000 0.000000 0.000000 0.000000 0.000000 0.000000 0.000000 0.000000 0.000000 0.000000 0.000000 0.000000 0.000000 0.000000 0.000000 0.000000 13.865841 26.381104 1.111091 63.452034 -180.000000 79.502861 -180.000000 0.000000 0.000000 0.000000 0.000000 0.000000 0.000000 0.000000 0.000000 0.000000 0.000000 0.000000 0.000000 0.000000 0.000000 0.000000 0.000000 0.000000 0.000000 0.000000 0.000000 0.000000 0.000000 0.000000 0.000000 0.000000 0.000000 0.000000 0.000000 0.000000 0.000000 0.000000 0.000000 0.000000 0.000000 0.000000 0.000000 0.000000 0.000000 0.000000 0.000000 0.000000 0.000000 0.000000 0.000000 0.000000 0.000000 0.000000 0.000000 -34.994778 -9.919429 -5.376061 57.812599 0.000005 -0.000001 -10.577098 1.551190 0.841708 -3.078090 0.000000 0.000000 -27.725489 11.435681 1.133571 46.264256 0.000004 -0.000001 -30.655262 0.768273 0.641376 -0.000003 0.000000 0.000000 
-0.246286 81.406883 -1.639458 8.590261 8.431067 -2.105116 0.000000 0.000000 0.000000 2.099290 -1.809219 1.145085 2.099290 -1.809219 1.145085 0.000000 0.000000 0.000000 0.000000 0.000000 0.000000 0.000000 0.000000 -14.603063 20.763763 -20.530882 -56.347916 179.418335 -81.652618 179.071930 0.000000 0.000000 0.000000 0.000000 0.000000 0.000000 0.000000 0.000000 0.000000 0.000000 0.000000 0.000000 0.000000 0.000000 0.000000 0.000000 0.000000 0.000000 0.000000 0.000000 0.000000 0.000000 0.000000 0.000000 0.000000 0.000000 0.000000 0.000000 0.000000 0.000000 0.000000 0.000000 0.000000 0.000000 0.000000 0.000000 0.000000 0.000000 0.000000 0.000000 0.000000 0.000000 0.000000 0.000000 0.000000 0.000000 0.000000 0.000000 0.000000 0.000000 13.803609 26.813196 -0.223784 63.845890 -180.000000 81.474197 -180.000000 0.000000 0.000000 0.000000 0.000000 0.000000 0.000000 0.000000 0.000000 0.000000 0.000000 0.000000 0.000000 0.000000 0.000000 0.000000 0.000000 0.000000 0.000000 0.000000 0.000000 0.000000 0.000000 0.000000 0.000000 0.000000 0.000000 0.000000 0.000000 0.000000 0.000000 0.000000 0.000000 0.000000 0.000000 0.000000 0.000000 0.000000 0.000000 0.000000 0.000000 0.000000 0.000000 0.000000 0.000000 0.000000 0.000000 0.000000 0.000000 -34.286392 -9.632588 -3.929155 53.257774 0.000005 -0.000001 -7.591707 1.989973 1.069622 -1.815759 0.000000 0.000000 -26.196129 13.793691 2.654653 41.700562 0.000004 0.000000 -26.281559 0.544255 0.490159 -0.000003 0.000000 0.000000 
-0.556908 83.317368 -2.084623 8.851954 6.999181 -1.999220 0.000000 0.000000 0.000000 2.323905 -1.440696 1.192946 2.323905 -1.440696 1.192946 0.000000 0.000000 0.000000 0.000000 0.000000 0.000000 0.000000 0.000000 -14.790580 20.103630 -21.425011 -56.500061 178.943207 -78.736061 178.605606 0.000000 0.000000 0.000000 0.000000 0.000000 0.000000 0.000000 0.000000 0.000000 0.000000 0.000000 0.000000 0.000000 0.000000 0.000000 0.000000 0.000000 0.000000 0.000000 0.000000 0.000000 0.000000 0.000000 0.000000 0.000000 0.000000 0.000000 0.000000 0.000000 0.000000 0.000000 0.000000 0.000000 0.000000 0.000000 0.000000 0.000000 0.000000 0.000000 0.000000 0.000000 0.000000 0.000000 0.000000 0.000000 0.000000 0.000000 0.000000 0.000000 0.000000 13.678430 26.607401 -0.341238 63.641788 -180.000000 83.544380 -180.000000 0.000000 0.000000 0.000000 0.000000 0.000000 0.000000 0.000000 0.000000 0.000000 0.000000 0.000000 0.000000 0.000000 0.000000 0.000000 0.000000 0.000000 0.000000 0.000000 0.000000 0.000000 0.000000 0.000000 0.000000 0.000000 0.000000 0.000000 0.000000 0.000000 0.000000 0.000000 0.000000 0.000000 0.000000 0.000000 0.000000 0.000000 0.000000 0.000000 0.000000 0.000000 0.000000 0.000000 0.000000 0.000000 0.000000 0.000000 0.000000 -32.678490 -9.664591 -2.484317 47.876541 0.000005 -0.000001 -3.422811 2.048402 1.024107 -1.637504 0.000000 0.000000 -23.856310 17.353840 3.860248 35.371422 0.000003 0.000000 -20.210440 -0.469194 -0.365107 -0.000003 0.000000 0.000000 
